<?xml version="1.0" encoding="UTF-8"?>
<svg width="22px" height="22px" viewBox="0 0 22 22" version="1.1" xmlns="http://www.w3.org/2000/svg" xmlns:xlink="http://www.w3.org/1999/xlink">
    <title>icon-yes</title>
    <g id="icon-yes" stroke="none" stroke-width="1" fill="none" fill-rule="evenodd">
        <g id="i-remove" transform="translate(6.000000, 7.000000)" fill="#000000" fill-rule="nonzero">
            <path d="M11.2928932,-0.707106781 C11.6834175,-1.09763107 12.3165825,-1.09763107 12.7071068,-0.707106781 C13.0675907,-0.34662282 13.0953203,0.220608236 12.7902954,0.612899443 L12.7071068,0.707106781 L4.70710678,8.70710678 C4.31658249,9.09763107 3.68341751,9.09763107 3.29289322,8.70710678 C2.93240926,8.34662282 2.90467972,7.77939176 3.20970461,7.38710056 L3.29289322,7.29289322 L11.2928932,-0.707106781 Z" id="Path"></path>
            <path d="M-0.707106781,3.29289322 C-0.34662282,2.93240926 0.220608236,2.90467972 0.612899443,3.20970461 L0.707106781,3.29289322 L4.70710678,7.29289322 C5.09763107,7.68341751 5.09763107,8.31658249 4.70710678,8.70710678 C4.34662282,9.06759074 3.77939176,9.09532028 3.38710056,8.79029539 L3.29289322,8.70710678 L-0.707106781,4.70710678 C-1.09763107,4.31658249 -1.09763107,3.68341751 -0.707106781,3.29289322 Z" id="Path"></path>
        </g>
    </g>
</svg>