<?xml version="1.0" encoding="utf-8"?>
<!-- Generator: Adobe Illustrator 23.0.2, SVG Export Plug-In . SVG Version: 6.00 Build 0)  -->
<svg version="1.1" id="图层_1" xmlns="http://www.w3.org/2000/svg" xmlns:xlink="http://www.w3.org/1999/xlink" x="0px" y="0px"
	 viewBox="0 0 500 100" style="enable-background:new 0 0 500 100;" xml:space="preserve">
<style type="text/css">
	.st0{opacity:0.5;}
	.st1{fill:#999899;}
	.st2{opacity:0.1;}
</style>
<g class="st0">
	<path class="st1" d="M4.5,18.6c-0.3,0.2-0.8,0.1-1-0.3c-0.1-0.2-0.1-0.3-0.1-0.5l1-5.8L0.2,7.8c-0.3-0.3-0.3-0.8,0-1
		c0.1-0.1,0.2-0.2,0.4-0.2l5.9-0.9l2.6-5.3c0.2-0.4,0.6-0.5,1-0.3c0.1,0.1,0.3,0.2,0.3,0.3L13,5.7l5.9,0.9c0.4,0.1,0.7,0.4,0.6,0.8
		c0,0.2-0.1,0.3-0.2,0.4L15,12l1,5.8c0.1,0.4-0.2,0.8-0.6,0.8c-0.2,0-0.3,0-0.5-0.1l-5.3-2.7L4.5,18.6z"/>
</g>
<g class="st0">
	<path class="st1" d="M26.1,18.6c-0.3,0.2-0.8,0.1-1-0.3C25,18.2,24.9,18,25,17.8l1-5.8l-4.2-4.1c-0.3-0.3-0.3-0.8,0-1
		c0.1-0.1,0.2-0.2,0.4-0.2L28,5.7l2.6-5.3c0.2-0.4,0.6-0.5,1-0.3c0.1,0.1,0.3,0.2,0.3,0.3l2.6,5.3l5.9,0.9c0.4,0.1,0.7,0.4,0.6,0.8
		c0,0.2-0.1,0.3-0.2,0.4L36.6,12l1,5.8c0.1,0.4-0.2,0.8-0.6,0.8c-0.2,0-0.3,0-0.5-0.1l-5.3-2.7L26.1,18.6z"/>
	<path class="st1" d="M26.1,38.9c-0.3,0.2-0.8,0.1-1-0.3c-0.1-0.2-0.1-0.3-0.1-0.5l1-5.8l-4.2-4.1c-0.3-0.3-0.3-0.8,0-1
		C21.9,27,22,27,22.2,27L28,26l2.6-5.3c0.2-0.4,0.6-0.5,1-0.3c0.1,0.1,0.3,0.2,0.3,0.3l2.6,5.3l5.9,0.9c0.4,0.1,0.7,0.4,0.6,0.8
		c0,0.2-0.1,0.3-0.2,0.4l-4.2,4.1l1,5.8c0.1,0.4-0.2,0.8-0.6,0.8c-0.2,0-0.3,0-0.5-0.1l-5.3-2.7L26.1,38.9z"/>
</g>
<g class="st0">
	<path class="st1" d="M47.6,18.6c-0.3,0.2-0.8,0.1-1-0.3c-0.1-0.2-0.1-0.3-0.1-0.5l1-5.8l-4.2-4.1c-0.3-0.3-0.3-0.8,0-1
		c0.1-0.1,0.2-0.2,0.4-0.2l5.9-0.9l2.6-5.3c0.2-0.4,0.6-0.5,1-0.3c0.1,0.1,0.3,0.2,0.3,0.3l2.6,5.3L62,6.6c0.4,0.1,0.7,0.4,0.6,0.8
		c0,0.2-0.1,0.3-0.2,0.4L58.2,12l1,5.8c0.1,0.4-0.2,0.8-0.6,0.8c-0.2,0-0.3,0-0.5-0.1l-5.3-2.7L47.6,18.6z"/>
	<path class="st1" d="M47.6,59.2c-0.3,0.2-0.8,0.1-1-0.3c-0.1-0.2-0.1-0.3-0.1-0.5l1-5.8l-4.2-4.1c-0.3-0.3-0.3-0.8,0-1
		c0.1-0.1,0.2-0.2,0.4-0.2l5.9-0.9l2.6-5.3c0.2-0.4,0.6-0.5,1-0.3c0.1,0.1,0.3,0.2,0.3,0.3l2.6,5.3l5.9,0.9c0.4,0.1,0.7,0.4,0.6,0.8
		c0,0.2-0.1,0.3-0.2,0.4l-4.2,4.1l1,5.8c0.1,0.4-0.2,0.8-0.6,0.8c-0.2,0-0.3,0-0.5-0.1l-5.3-2.7L47.6,59.2z"/>
	<path class="st1" d="M47.6,38.9c-0.3,0.2-0.8,0.1-1-0.3c-0.1-0.2-0.1-0.3-0.1-0.5l1-5.8l-4.2-4.1c-0.3-0.3-0.3-0.8,0-1
		c0.1-0.1,0.2-0.2,0.4-0.2l5.9-0.9l2.6-5.3c0.2-0.4,0.6-0.5,1-0.3c0.1,0.1,0.3,0.2,0.3,0.3l2.6,5.3L62,27c0.4,0.1,0.7,0.4,0.6,0.8
		c0,0.2-0.1,0.3-0.2,0.4l-4.2,4.1l1,5.8c0.1,0.4-0.2,0.8-0.6,0.8c-0.2,0-0.3,0-0.5-0.1l-5.3-2.7L47.6,38.9z"/>
</g>
<g class="st0">
	<path class="st1" d="M69.2,18.6c-0.3,0.2-0.8,0.1-1-0.3c-0.1-0.2-0.1-0.3-0.1-0.5l1-5.8l-4.2-4.1c-0.3-0.3-0.3-0.8,0-1
		c0.1-0.1,0.2-0.2,0.4-0.2l5.9-0.9l2.6-5.3c0.2-0.4,0.6-0.5,1-0.3c0.1,0.1,0.3,0.2,0.3,0.3l2.6,5.3l5.9,0.9C84,6.7,84.3,7,84.2,7.4
		c0,0.2-0.1,0.3-0.2,0.4L79.8,12l1,5.8c0.1,0.4-0.2,0.8-0.6,0.8c-0.2,0-0.3,0-0.5-0.1l-5.3-2.7L69.2,18.6z"/>
	<path class="st1" d="M69.2,79.6c-0.3,0.2-0.8,0.1-1-0.3c-0.1-0.2-0.1-0.3-0.1-0.5l1-5.8l-4.2-4.1c-0.3-0.3-0.3-0.8,0-1
		c0.1-0.1,0.2-0.2,0.4-0.2l5.9-0.9l2.6-5.3c0.2-0.4,0.6-0.5,1-0.3c0.1,0.1,0.3,0.2,0.3,0.3l2.6,5.3l5.9,0.9c0.4,0.1,0.7,0.4,0.6,0.8
		c0,0.2-0.1,0.3-0.2,0.4L79.8,73l1,5.8c0.1,0.4-0.2,0.8-0.6,0.8c-0.2,0-0.3,0-0.5-0.1l-5.3-2.7L69.2,79.6z"/>
	<path class="st1" d="M69.2,59.2c-0.3,0.2-0.8,0.1-1-0.3c-0.1-0.2-0.1-0.3-0.1-0.5l1-5.8l-4.2-4.1c-0.3-0.3-0.3-0.8,0-1
		c0.1-0.1,0.2-0.2,0.4-0.2l5.9-0.9l2.6-5.3c0.2-0.4,0.6-0.5,1-0.3c0.1,0.1,0.3,0.2,0.3,0.3l2.6,5.3l5.9,0.9c0.4,0.1,0.7,0.4,0.6,0.8
		c0,0.2-0.1,0.3-0.2,0.4l-4.2,4.1l1,5.8c0.1,0.4-0.2,0.8-0.6,0.8c-0.2,0-0.3,0-0.5-0.1l-5.3-2.7L69.2,59.2z"/>
	<path class="st1" d="M69.2,38.9c-0.3,0.2-0.8,0.1-1-0.3c-0.1-0.2-0.1-0.3-0.1-0.5l1-5.8l-4.2-4.1c-0.3-0.3-0.3-0.8,0-1
		C65,27,65.2,27,65.3,27l5.9-0.9l2.6-5.3c0.2-0.4,0.6-0.5,1-0.3c0.1,0.1,0.3,0.2,0.3,0.3l2.6,5.3l5.9,0.9c0.4,0.1,0.7,0.4,0.6,0.8
		c0,0.2-0.1,0.3-0.2,0.4l-4.2,4.1l1,5.8c0.1,0.4-0.2,0.8-0.6,0.8c-0.2,0-0.3,0-0.5-0.1l-5.3-2.7L69.2,38.9z"/>
</g>
<g class="st0">
	<path class="st1" d="M90.8,18.6c-0.3,0.2-0.8,0.1-1-0.3c-0.1-0.2-0.1-0.3-0.1-0.5l1-5.8l-4.2-4.1c-0.3-0.3-0.3-0.8,0-1
		c0.1-0.1,0.2-0.2,0.4-0.2l5.9-0.9l2.6-5.3c0.2-0.4,0.6-0.5,1-0.3c0.1,0.1,0.3,0.2,0.3,0.3l2.6,5.3l5.9,0.9c0.4,0.1,0.7,0.4,0.6,0.8
		c0,0.2-0.1,0.3-0.2,0.4l-4.2,4.1l1,5.8c0.1,0.4-0.2,0.8-0.6,0.8c-0.2,0-0.3,0-0.5-0.1L96,15.9L90.8,18.6z"/>
	<path class="st1" d="M90.8,79.6c-0.3,0.2-0.8,0.1-1-0.3c-0.1-0.2-0.1-0.3-0.1-0.5l1-5.8l-4.2-4.1c-0.3-0.3-0.3-0.8,0-1
		c0.1-0.1,0.2-0.2,0.4-0.2l5.9-0.9l2.6-5.3c0.2-0.4,0.6-0.5,1-0.3c0.1,0.1,0.3,0.2,0.3,0.3l2.6,5.3l5.9,0.9c0.4,0.1,0.7,0.4,0.6,0.8
		c0,0.2-0.1,0.3-0.2,0.4l-4.2,4.1l1,5.8c0.1,0.4-0.2,0.8-0.6,0.8c-0.2,0-0.3,0-0.5-0.1L96,76.9L90.8,79.6z"/>
	<path class="st1" d="M90.8,59.2c-0.3,0.2-0.8,0.1-1-0.3c-0.1-0.2-0.1-0.3-0.1-0.5l1-5.8l-4.2-4.1c-0.3-0.3-0.3-0.8,0-1
		c0.1-0.1,0.2-0.2,0.4-0.2l5.9-0.9l2.6-5.3c0.2-0.4,0.6-0.5,1-0.3c0.1,0.1,0.3,0.2,0.3,0.3l2.6,5.3l5.9,0.9c0.4,0.1,0.7,0.4,0.6,0.8
		c0,0.2-0.1,0.3-0.2,0.4l-4.2,4.1l1,5.8c0.1,0.4-0.2,0.8-0.6,0.8c-0.2,0-0.3,0-0.5-0.1L96,56.5L90.8,59.2z"/>
	<path class="st1" d="M90.8,38.9c-0.3,0.2-0.8,0.1-1-0.3c-0.1-0.2-0.1-0.3-0.1-0.5l1-5.8l-4.2-4.1c-0.3-0.3-0.3-0.8,0-1
		c0.1-0.1,0.2-0.2,0.4-0.2l5.9-0.9l2.6-5.3c0.2-0.4,0.6-0.5,1-0.3c0.1,0.1,0.3,0.2,0.3,0.3l2.6,5.3l5.9,0.9c0.4,0.1,0.7,0.4,0.6,0.8
		c0,0.2-0.1,0.3-0.2,0.4l-4.2,4.1l1,5.8c0.1,0.4-0.2,0.8-0.6,0.8c-0.2,0-0.3,0-0.5-0.1L96,36.2L90.8,38.9z"/>
	<path class="st1" d="M90.8,99.9c-0.3,0.2-0.8,0.1-1-0.3c-0.1-0.2-0.1-0.3-0.1-0.5l1-5.8l-4.2-4.1c-0.3-0.3-0.3-0.8,0-1
		c0.1-0.1,0.2-0.2,0.4-0.2l5.9-0.9l2.6-5.3c0.2-0.4,0.6-0.5,1-0.3c0.1,0.1,0.3,0.2,0.3,0.3l2.6,5.3l5.9,0.9c0.4,0.1,0.7,0.4,0.6,0.8
		c0,0.2-0.1,0.3-0.2,0.4l-4.2,4.1l1,5.8c0.1,0.4-0.2,0.8-0.6,0.8c-0.2,0-0.3,0-0.5-0.1L96,97.2L90.8,99.9z"/>
</g>
<g class="st2">
	<path class="st1" d="M495.5,18H119.4c-2.5,0-4.5-2-4.5-4.5v-9c0-2.5,2-4.5,4.5-4.5h376.1c2.5,0,4.5,2,4.5,4.5v9
		C500,16,498,18,495.5,18z"/>
</g>
<g class="st2">
	<path class="st1" d="M495.5,38.4H119.4c-2.5,0-4.5-2-4.5-4.5v-9c0-2.5,2-4.5,4.5-4.5h376.1c2.5,0,4.5,2,4.5,4.5v9
		C500,36.4,498,38.4,495.5,38.4z"/>
</g>
<g class="st2">
	<path class="st1" d="M495.5,58.8H119.4c-2.5,0-4.5-2-4.5-4.5v-9c0-2.5,2-4.5,4.5-4.5h376.1c2.5,0,4.5,2,4.5,4.5v9
		C500,56.8,498,58.8,495.5,58.8z"/>
</g>
<g class="st2">
	<path class="st1" d="M495.5,79.3H119.4c-2.5,0-4.5-2-4.5-4.5v-9c0-2.5,2-4.5,4.5-4.5h376.1c2.5,0,4.5,2,4.5,4.5v9
		C500,77.2,498,79.3,495.5,79.3z"/>
</g>
<g class="st2">
	<path class="st1" d="M495.5,99.7H119.4c-2.5,0-4.5-2-4.5-4.5v-9c0-2.5,2-4.5,4.5-4.5h376.1c2.5,0,4.5,2,4.5,4.5v9
		C500,97.6,498,99.7,495.5,99.7z"/>
</g>
</svg>
